<?xml version="1.0" standalone="no"?>
<!DOCTYPE svg PUBLIC "-//W3C//DTD SVG 20010904//EN"
 "http://www.w3.org/TR/2001/REC-SVG-20010904/DTD/svg10.dtd">
<svg version="1.0" xmlns="http://www.w3.org/2000/svg"
 width="1440.000000pt" height="1440.000000pt" viewBox="0 0 1440.000000 1440.000000"
 preserveAspectRatio="xMidYMid meet">
<metadata>
Created by potrace 1.14, written by Peter Selinger 2001-2017
</metadata>
<g transform="translate(0.000000,1440.000000) scale(0.100000,-0.100000)"
fill="#000000" stroke="none">
<path d="M4659 14286 c-2 -3 -22 -7 -44 -10 -49 -6 -162 -24 -192 -31 -13 -3
-33 -7 -45 -10 -13 -3 -36 -8 -52 -10 -16 -3 -37 -10 -47 -16 -11 -5 -19 -7
-19 -5 0 3 -39 -8 -87 -25 -88 -30 -102 -35 -158 -60 -16 -7 -32 -13 -35 -13
-17 -3 -208 -100 -222 -113 -10 -9 -18 -13 -18 -10 0 5 -87 -48 -115 -70 -5
-4 -30 -21 -55 -38 -49 -32 -191 -145 -229 -182 -13 -13 -28 -23 -32 -23 -5 0
-9 -7 -9 -15 0 -8 -3 -15 -7 -15 -11 0 -60 -48 -118 -114 -27 -32 -60 -69 -72
-82 -13 -12 -23 -28 -23 -34 0 -5 -4 -10 -9 -10 -14 0 -154 -211 -218 -330
-20 -36 -40 -69 -44 -75 -5 -5 -9 -17 -9 -27 0 -10 -4 -18 -10 -18 -5 0 -10
-6 -10 -13 0 -7 -9 -30 -20 -52 -11 -22 -20 -45 -20 -52 0 -7 -5 -13 -12 -13
-6 0 -9 -3 -5 -6 3 -3 -6 -36 -20 -72 -33 -87 -52 -152 -46 -152 3 0 0 -6 -6
-13 -6 -8 -13 -31 -17 -53 -3 -21 -8 -42 -10 -45 -2 -3 -6 -19 -8 -35 -3 -16
-8 -40 -11 -54 -28 -134 -39 -234 -39 -372 -1 -60 -5 -108 -9 -108 -5 0 -5 -4
-2 -10 3 -5 8 -60 11 -122 2 -62 7 -126 9 -143 3 -16 7 -48 10 -70 5 -43 28
-155 44 -219 5 -22 8 -43 5 -47 -2 -4 1 -9 7 -11 5 -2 12 -17 13 -33 2 -17 6
-37 9 -45 4 -8 21 -55 38 -105 29 -84 126 -304 139 -315 3 -3 13 -21 22 -40 9
-19 28 -52 42 -73 14 -21 26 -40 26 -42 0 -3 28 -43 63 -91 34 -47 69 -95 77
-107 29 -43 167 -194 224 -246 22 -20 58 -53 80 -74 23 -21 53 -46 69 -55 15
-9 27 -19 27 -23 0 -3 61 -48 135 -98 74 -51 135 -89 135 -85 0 4 8 0 18 -8 9
-8 53 -33 97 -55 70 -36 105 -51 213 -94 12 -5 32 -13 45 -18 32 -14 112 -40
139 -45 22 -4 37 -9 76 -22 9 -4 26 -8 37 -9 11 -2 29 -5 40 -8 25 -6 78 -15
130 -22 22 -4 51 -8 65 -11 14 -3 54 -7 89 -10 72 -5 93 -13 40 -15 -19 -1
-54 -3 -79 -6 -25 -2 -60 -5 -77 -6 -18 -1 -33 -4 -33 -8 0 -4 -8 -6 -17 -5
-10 2 -31 -1 -47 -5 -16 -5 -48 -11 -70 -15 -23 -3 -46 -10 -52 -15 -6 -5 -13
-7 -16 -4 -2 3 -20 0 -39 -6 -19 -5 -41 -12 -49 -14 -8 -2 -26 -8 -40 -13 -14
-5 -27 -10 -30 -10 -10 -1 -79 -25 -125 -43 -16 -7 -32 -13 -35 -14 -34 -10
-255 -118 -258 -127 -2 -4 -10 -8 -18 -8 -8 0 -14 -5 -14 -12 0 -6 -3 -9 -6
-5 -5 5 -220 -134 -234 -152 -3 -3 -27 -24 -55 -46 -121 -97 -257 -233 -346
-346 -18 -24 -36 -46 -40 -49 -10 -8 -144 -209 -169 -255 -57 -101 -100 -187
-100 -200 0 -8 -5 -15 -12 -15 -6 0 -8 -3 -5 -7 4 -3 1 -16 -6 -27 -7 -12 -21
-43 -31 -71 -10 -27 -24 -64 -32 -82 -8 -17 -17 -46 -20 -65 -4 -18 -11 -38
-15 -44 -5 -6 -10 -23 -11 -38 -1 -14 -5 -26 -8 -26 -3 0 -6 -8 -7 -17 0 -10
-8 -51 -17 -90 -21 -97 -30 -151 -42 -248 -4 -33 -8 -102 -8 -152 -1 -51 -5
-93 -9 -93 -5 0 -5 -5 -1 -11 3 -6 8 -61 9 -123 4 -144 18 -266 49 -406 3 -14
9 -41 13 -60 9 -46 6 -35 32 -110 7 -19 14 -46 17 -60 3 -14 16 -52 30 -86 13
-33 24 -64 24 -68 0 -15 122 -261 131 -264 5 -2 7 -7 4 -12 -3 -4 2 -13 10
-20 8 -7 15 -17 15 -23 0 -5 11 -25 26 -44 14 -18 22 -33 19 -33 -3 0 -1 -6 5
-12 5 -7 47 -62 91 -123 90 -123 82 -113 216 -250 94 -96 143 -140 214 -195
18 -14 37 -30 43 -35 12 -12 168 -115 226 -150 105 -63 212 -115 222 -109 4 3
8 0 8 -5 0 -6 5 -11 10 -11 6 0 29 -8 53 -19 81 -36 150 -61 167 -61 9 0 20
-3 24 -7 3 -4 12 -8 19 -9 7 -1 57 -14 112 -27 97 -24 154 -36 205 -43 74 -10
138 -17 163 -17 15 0 27 -4 27 -8 0 -4 -8 -8 -17 -7 -18 0 -100 -8 -158 -16
-33 -4 -136 -23 -172 -31 -60 -13 -164 -42 -195 -54 -16 -6 -28 -9 -28 -6 0 2
-12 -2 -27 -10 -15 -8 -30 -12 -35 -9 -4 3 -8 0 -8 -7 0 -7 -3 -9 -7 -6 -3 4
-11 3 -17 -2 -6 -5 -29 -14 -51 -21 -47 -15 -236 -109 -309 -154 -63 -38 -209
-137 -216 -146 -3 -3 -32 -27 -65 -52 -57 -43 -212 -191 -281 -269 -24 -27
-129 -160 -162 -204 -22 -30 -102 -155 -102 -160 0 -2 -18 -34 -40 -70 -22
-36 -40 -69 -40 -73 -1 -4 -9 -25 -20 -47 -11 -22 -19 -46 -20 -52 0 -7 -4
-13 -9 -13 -5 0 -12 -12 -17 -27 -10 -36 -9 -33 -23 -68 -13 -30 -57 -156 -59
-165 0 -3 -3 -12 -6 -20 -8 -24 -55 -222 -60 -255 -2 -16 -8 -50 -12 -75 -12
-77 -14 -101 -18 -222 -2 -65 -7 -122 -11 -128 -3 -5 -3 -10 2 -10 4 0 8 -44
9 -98 0 -92 7 -186 20 -262 11 -70 44 -222 58 -270 8 -26 12 -51 9 -54 -4 -3
-1 -6 5 -6 7 0 12 -8 12 -18 0 -9 12 -49 26 -87 14 -39 29 -79 32 -90 3 -11
11 -29 19 -41 7 -11 10 -24 6 -27 -3 -4 -1 -7 5 -7 7 0 12 -5 12 -11 0 -42
220 -421 276 -474 5 -5 28 -32 49 -60 88 -112 214 -237 347 -346 53 -43 101
-79 107 -79 5 0 11 -4 13 -9 8 -23 313 -197 419 -240 18 -7 48 -19 64 -26 17
-7 53 -20 80 -30 28 -9 57 -19 65 -22 20 -8 17 -7 155 -42 145 -36 201 -45
340 -57 151 -13 408 -7 520 12 17 3 41 6 55 8 192 28 439 107 643 208 95 47
266 145 277 160 3 3 30 23 60 44 30 21 60 42 67 48 6 6 33 29 60 51 50 41 254
243 288 285 74 93 102 131 165 223 38 58 70 108 70 112 0 4 10 21 22 38 13 18
23 34 23 37 1 3 18 39 38 80 71 142 133 311 171 468 3 9 5 17 6 17 1 0 3 9 5
20 2 11 6 31 9 45 8 32 14 64 21 115 4 22 9 49 12 60 13 44 14 210 17 2493 2
1311 6 2386 10 2389 3 4 6 -5 7 -18 0 -13 2 -33 4 -44 2 -11 7 -47 11 -80 10
-88 11 -96 23 -145 7 -25 13 -54 16 -65 5 -28 11 -53 24 -100 6 -22 10 -42 10
-45 0 -3 12 -36 27 -75 14 -38 27 -74 29 -80 20 -87 211 -450 250 -477 5 -4 6
-8 2 -8 -4 0 -3 -6 3 -13 5 -6 34 -44 63 -83 284 -384 684 -675 1142 -829 28
-9 57 -18 65 -20 8 -2 40 -10 70 -19 30 -8 71 -18 90 -21 19 -3 42 -8 51 -11
10 -2 32 -7 50 -10 19 -2 45 -7 59 -9 206 -32 566 -25 750 16 25 5 59 11 75
14 17 2 55 11 85 20 30 9 62 17 70 20 8 2 27 8 41 13 15 6 30 8 33 5 3 -4 6
-2 6 4 0 5 6 10 14 10 30 0 276 110 401 180 65 36 179 114 183 125 2 4 8 8 14
8 11 0 91 60 96 72 2 5 7 8 12 8 18 0 203 178 295 285 100 115 195 244 195
265 0 5 5 10 10 10 6 0 10 6 10 13 0 7 8 22 18 33 15 17 27 37 76 129 6 11 15
23 19 26 5 3 8 8 7 10 -2 4 10 34 54 132 14 31 22 57 18 57 -4 0 -2 4 4 8 26
17 129 372 139 482 2 19 4 35 5 35 1 0 3 11 5 25 1 14 6 54 10 90 10 83 11
404 2 495 -8 80 -15 129 -33 230 -22 125 -109 401 -150 477 -8 14 -14 33 -14
42 0 9 -4 16 -10 16 -5 0 -10 9 -10 20 0 11 -4 20 -10 20 -5 0 -10 6 -10 13 0
6 -6 23 -14 37 -30 57 -58 107 -76 135 -11 17 -27 44 -36 60 -20 35 -134 190
-188 255 -69 81 -212 224 -287 285 -13 11 -38 31 -55 45 -17 14 -43 34 -58 45
-16 11 -34 26 -42 33 -8 7 -14 11 -14 7 0 -3 -9 3 -21 14 -12 11 -34 25 -50
31 -16 7 -29 16 -29 21 0 5 -5 9 -11 9 -6 0 -23 9 -38 19 -15 11 -74 43 -131
71 -58 28 -117 58 -132 66 -16 8 -28 12 -28 9 0 -3 -10 0 -22 7 -13 7 -26 13
-30 14 -5 1 -9 2 -10 4 -2 1 -10 3 -18 5 -8 2 -39 13 -68 24 -55 21 -243 69
-297 77 -16 2 -41 6 -55 9 -70 14 -153 23 -239 24 -72 1 -62 8 24 15 87 7 162
16 195 22 14 2 41 7 60 10 19 3 43 7 52 10 10 3 30 7 45 10 16 3 46 10 68 16
22 6 47 12 55 13 8 2 16 4 18 5 1 2 7 4 12 5 6 1 11 3 13 5 1 1 9 3 17 5 28 6
164 57 185 68 11 6 25 11 30 12 14 1 122 54 165 80 19 12 37 22 40 21 3 0 30
15 60 34 30 19 60 37 65 39 6 2 24 15 41 28 17 12 37 23 44 23 7 0 10 3 7 6
-4 4 15 20 41 37 26 16 49 32 52 36 3 3 34 30 70 60 106 89 284 275 339 355 8
12 17 23 21 26 14 12 130 189 130 199 0 5 8 15 18 20 9 6 14 11 10 11 -4 0 8
26 27 58 19 31 35 63 35 70 0 6 5 12 10 12 6 0 9 3 8 8 0 4 7 25 16 47 10 22
27 60 38 85 10 25 23 54 28 65 11 25 30 87 30 98 0 4 6 20 13 35 8 15 26 74
40 132 33 135 37 152 52 260 3 22 8 59 11 83 10 62 11 433 2 497 -4 30 -10 82
-14 115 -3 33 -8 63 -10 66 -2 3 -6 21 -9 40 -20 114 -92 360 -109 371 -6 4
-8 8 -4 8 8 0 -13 57 -60 160 -16 36 -30 70 -31 75 -1 6 -8 17 -15 25 -6 8
-21 33 -31 55 -11 22 -23 42 -27 43 -5 2 -8 8 -8 13 0 19 -136 218 -218 318
-77 94 -277 288 -358 347 -14 10 -40 31 -57 46 -18 15 -37 28 -44 28 -6 0 -13
4 -15 8 -4 9 -93 72 -103 72 -4 0 -25 13 -48 28 -46 32 -231 123 -289 143 -21
7 -38 16 -38 19 0 4 -6 7 -12 7 -7 0 -54 14 -105 31 -50 17 -102 34 -115 36
-12 3 -43 10 -68 17 -25 6 -55 13 -67 15 -13 2 -35 7 -50 10 -16 3 -46 8 -68
10 -22 3 -65 9 -95 14 -53 9 -5133 14 -5141 6z m4671 -4747 c0 -8 -21 -10
-107 -12 -13 -1 -23 -4 -23 -8 0 -4 -8 -6 -17 -5 -10 2 -43 -3 -74 -10 -31 -7
-69 -16 -85 -19 -16 -3 -33 -7 -39 -9 -5 -1 -30 -8 -55 -15 -52 -14 -151 -47
-195 -66 -16 -7 -41 -16 -55 -20 -32 -10 -248 -117 -303 -151 -240 -150 -427
-308 -588 -499 -39 -45 -35 -40 -95 -120 -25 -33 -51 -68 -59 -78 -8 -9 -15
-20 -15 -23 0 -3 -13 -25 -30 -49 -16 -24 -30 -48 -30 -54 0 -6 -4 -11 -10
-11 -5 0 -10 -6 -10 -13 0 -7 -11 -29 -25 -50 -14 -20 -22 -37 -18 -37 4 0 4
-4 -2 -8 -14 -10 -75 -139 -75 -157 0 -8 -4 -15 -8 -15 -8 0 -98 -253 -107
-301 -2 -11 -7 -29 -10 -39 -3 -10 -8 -28 -10 -39 -3 -12 -7 -31 -10 -43 -3
-13 -7 -39 -10 -58 -2 -19 -4 -35 -5 -35 -7 0 -27 -161 -29 -227 -1 -21 -4
-38 -8 -38 -5 0 -8 499 -8 1109 l0 1109 1058 1 c653 0 1057 -4 1057 -10z m70
7 c0 -8 -51 -13 -56 -5 -3 5 9 9 25 9 17 0 31 -2 31 -4z m-2170 -2526 c0 -16
-4 -30 -8 -30 -5 0 -7 14 -4 30 2 17 6 30 8 30 2 0 4 -13 4 -30z m-2456 -2218
c3 -5 -1 -9 -9 -9 -8 0 -12 4 -9 9 3 4 7 8 9 8 2 0 6 -4 9 -8z"/>
</g>
</svg>
